<svg width="717" height="169" viewBox="0 0 717 169" fill="none" xmlns="http://www.w3.org/2000/svg">
<g filter="url(#filter0_dd_3925_6)">
<path d="M89.28 110.92C88.72 110.92 88.24 110.76 87.76 110.52C87.28 110.12 86.8 109.8 86.32 109.4L86.08 108.84L85.6 108.52C85.12 108.04 84.8 107.48 84.48 107C84.16 106.44 83.92 105.88 83.84 105.32L84 103.08L83.84 100.28L84 98.28L83.68 95.48V88.04C83.76 84.84 84.08 81.8 84.48 78.76C84.88 75.8 85.12 72.76 85.2 69.56C85.2 65.56 84.8 61.64 83.84 57.88C82.88 54.12 81.92 50.44 81.04 46.68H81.2L86.48 51.56V51.96L87.04 52.12V52.44H87.36V52.84L87.92 53.16C88.56 54.76 89.36 56.52 90.16 58.12C90.88 59.88 91.44 61.64 91.76 63.56C91.6 64.36 91.44 65.24 91.44 66.2C91.44 67.16 91.44 68.04 91.44 69L91.6 69.72L90.72 73.8H90.56C90.08 75.64 89.76 77.56 89.6 79.56C89.36 81.56 88.96 83.56 88.4 85.4H88.24C87.92 87.32 87.68 89.24 87.52 91.16C87.28 93.24 87.2 95.32 87.2 97.4L87.92 101.64H88.24C88.56 103.16 89.04 104.6 89.68 106.12C90.24 107.56 91.04 108.92 91.92 110.28L89.28 110.92ZM52.08 106.92L51.76 106.76L50.72 104.76H51.12L52.48 105.16C53.68 104.2 54.56 103.16 55.2 101.88C55.84 100.68 56.56 99.48 57.28 98.28C58.32 95.96 59.28 93.56 60.32 91.08C61.36 88.68 62.16 86.28 63.04 83.88C61.84 82.92 60.56 82.2 59.12 81.8C57.76 81.4 56.4 81 55.04 80.68C56.08 80.28 57.12 80.04 58.16 79.96C59.12 79.88 60.24 79.8 61.28 79.8L64.48 80.52C65.04 78.52 65.68 76.52 66.4 74.36C67.12 72.36 67.6 70.28 68 68.12H67.28L67.12 68.68C66.56 69.08 65.92 69.32 65.28 69.56C64.64 69.8 63.92 69.96 63.2 69.96L63.04 70.44C62.08 70.68 61.36 71.08 60.64 71.8C59.92 72.52 59.12 73.08 58.32 73.32V73.64L57.28 74.12L56.72 75L56 75.72H55.6L55.04 76.6C54.4 77.08 53.76 77.48 53.12 77.88C52.4 78.28 51.68 78.52 50.88 78.52L50.56 77.48C51.92 75.64 53.28 73.72 54.48 71.56C55.6 69.56 56.56 67.4 57.44 65.32L57.28 64.6C58.4 63.64 59.2 62.44 59.76 61.08C60.32 59.8 60.56 58.36 60.56 56.92L60.4 55.8L61.28 55.24C61.68 55.72 62 56.2 62.56 56.6C63.12 57 63.68 57.32 64.32 57.72C65.28 58.12 66.32 58.6 67.28 59.16C68.24 59.72 69.12 60.28 70.08 60.68L70.8 60.6V60.28L70.48 59.56C71.04 59.16 71.68 59 72.32 59.08C72.96 59.16 73.6 59.16 74.32 59.16L75.04 59.32V59.56C76.08 59.88 77.2 60.28 78.24 60.68C79.2 61.16 80.24 61.72 81.2 62.36V62.84H80.72L80.48 63.8L79.6 64.04L79.44 64.6L78.88 64.76C78.48 65.16 78.32 65.56 78.08 66.04C77.84 66.52 77.44 66.84 76.96 66.92H76.64L76.08 67.8L74.32 69.72H74L73.12 71.8H72.72C72.24 72.68 71.76 73.56 71.44 74.36C71.04 75.24 70.72 76.2 70.48 77.16C70.08 77.8 69.76 78.6 69.36 79.48C68.96 80.36 68.72 81.24 68.48 82.28L70.08 84.36L69.52 84.52L69.36 85.24L66.96 85.8C66.24 87.64 65.52 89.56 64.88 91.4C64.16 93.32 63.28 95.16 62.32 97.08L61.28 98.44V98.84H60.96L60.4 100.28L59.68 100.92H59.36L57.44 103.8L56.72 104.44C56 105 55.28 105.64 54.64 106.2C53.92 106.84 53.04 107.08 52.08 106.92ZM104.88 85.8C104 84.92 103.12 84.28 102.16 83.8C101.28 83.24 100.16 83.08 98.96 83.16C98.16 83.24 97.36 83.4 96.56 83.48C95.68 83.64 94.96 83.8 94.24 83.96V83.72L94.96 82.44H95.28C95.52 81.72 95.84 81.08 96.32 80.6C96.8 80.04 97.04 79.4 97.04 78.52C96.56 77.8 96 77.24 95.36 76.52C94.72 75.88 94.08 75.32 93.36 74.84H93.68C96.72 75.4 99.6 76.36 102.32 77.48C105.04 78.76 107.68 80.28 110.24 81.88V82.28H110.64L110.8 83L111.84 83.48L112 83.96H112.4V84.36L111.52 84.68L111.36 85.4H110.64L108.48 84.84L107.44 85.08L106.56 85.4L105.84 85.08V85.56L104.88 85.8ZM134.16 108.92L131.92 107.72C130.72 105.48 129.6 103.24 128.64 100.76C127.68 98.44 126.56 96.2 125.36 93.96H125.76L129.04 97.32L130.16 98.44V98.76L130.72 99V99.4L131.36 99.8L132.96 101C133.2 101.96 133.52 102.84 134 103.72C134.48 104.52 134.8 105.4 135.04 106.36H135.36L135.68 108.28L134.16 108.92ZM145.44 104.28L143.68 103.08L143.44 102.2C144.8 101.64 146.16 101.24 147.52 101C148.8 100.76 150.32 100.6 151.92 100.52V99.72L149.28 97.88C149.04 97.32 148.88 96.6 148.8 95.88C148.72 95.16 148.48 94.44 148.08 93.88L146.24 92.36L146.08 91.24H146.72C147.36 91.4 148 91.72 148.56 92.12C149.04 92.52 149.52 92.92 150.08 93.32L150.56 94.04C150.96 93.96 151.28 94.04 151.44 94.28C151.52 94.52 151.68 94.84 151.76 95.08C151.92 95.88 152.16 96.68 152.4 97.4C152.64 98.28 152.72 99.16 152.8 100.04L154 100.28L160.4 99.56C160.88 98.2 161.44 96.84 162.08 95.48C162.72 94.12 163.12 92.76 163.28 91.24L161.92 90.44L160.08 91.64C159.52 92.68 159.04 93.72 158.72 94.76C158.48 95.88 158 96.84 157.28 97.64H156.88L156.48 97.4C156 96.92 155.68 96.36 155.6 95.72C155.52 95.16 155.44 94.52 155.44 93.96L156 91.72L154.8 91.4L154.48 89.16L154.96 88.36C157.2 87.96 159.44 87.48 161.84 87.16C164.16 86.76 166.56 86.68 169.12 87.08L173.28 88.44L173.76 89.8H173.6C172.88 91.4 172.32 93.08 171.84 94.76C171.28 96.52 170.56 98.2 169.84 99.88L172.16 100.12C172.8 100.2 173.36 100.12 173.92 99.96C174.48 99.8 174.96 99.64 175.36 99.48L182.16 101.08L182.4 101.72L183.04 101.88L182.96 103.32L183.36 103.4V103.56L182.56 103.48V104.2L181.44 104.6L180.64 104.28V104.12C177.04 103.64 173.44 103.08 169.92 102.52C166.4 101.96 162.72 101.56 158.96 101.16C157.76 101.4 156.48 101.56 155.28 101.8C154 102.04 152.64 102.28 151.36 102.6V103L147.68 103.88C147.52 104.2 147.2 104.28 146.64 104.12C146.08 103.96 145.68 104.04 145.44 104.28ZM137.28 100.12C136.08 99.56 135.2 98.68 134.4 97.56C133.6 96.6 132.88 95.48 132.32 94.44V93.88H133.28C134.08 94.04 134.8 94.28 135.36 94.6C135.92 95 136.56 95.48 137.28 96.04L138.64 99.4L137.28 100.12ZM168.56 99.8L168.64 99L168.48 97.32L169.04 97.08C169.44 96.04 169.84 95 170.16 93.96C170.48 92.92 170.64 91.72 170.72 90.6C169.92 89.88 169.04 89.48 168.08 89.24C167.04 89 165.92 88.92 164.96 88.84L164 88.92V89.32C164.8 89.88 165.2 90.6 165.28 91.32C165.28 92.12 165.28 92.92 165.2 93.64C164.8 94.6 164.24 95.64 163.68 96.68C163.12 97.64 162.48 98.6 161.84 99.48L168.56 99.8ZM141.12 95.64C140.48 95.16 139.92 94.68 139.44 94.12C138.88 93.72 138.64 93.08 138.4 92.36L138.08 91L139.6 90.92L142.96 92.2L143.28 94.12L142.4 95.32L141.12 95.64ZM157.44 94.2L160.16 90.36H159.76L157.36 91.08L156.88 93.48L157.2 94.36L157.44 94.2ZM131.84 89.16V89C131.68 88.44 131.52 87.96 131.28 87.48C131.04 87.16 130.96 86.6 131.2 85.96C132.48 84.76 133.52 83.56 134.24 82.12C134.96 80.76 135.52 79.4 136.24 77.96H135.84L130.8 80.92L130.56 81.24L129.2 81.8L128.56 80.04L128.88 80.12L129.12 78.44L130.4 77.48C131.12 76.2 131.84 74.76 132.48 73.4C133.2 71.96 133.6 70.44 133.68 68.6L133.28 65.32L134.4 65.24L135.04 65.64L134.96 66.04L136.08 66.68V67.08H136.64V67.4L137.36 67.56V68.92L135.2 73.16L134.64 73.32C134.32 74.12 133.84 74.92 133.28 75.56C132.64 76.2 132.08 76.92 131.76 77.56L132.32 77.64L138.24 75.16C138.64 74.12 138.96 73.16 139.28 72.04C139.6 71 140.08 70.04 140.8 69.08H142.72L144 71L144.72 71.64L144.08 71.56V71.96L143.52 72.36L143.28 72.92H142.88L139.52 78.12L138.64 78.68L136.48 82.68H136.88C137.6 82.36 138.24 82.04 138.88 81.72C139.52 81.48 140.24 81.32 141.04 81.4L141.12 82.76C140.64 83 140.16 83.16 139.6 83.32C139.04 83.48 138.56 83.8 138.16 84.28L137.12 85.64L136.72 85.56L136.32 86.36L135.68 86.52L135.28 87.08L131.84 89.16ZM144.88 85.16C144.24 84.76 143.6 84.28 143.04 83.88C142.48 83.4 142.08 82.76 141.92 81.96L142.56 81.24L141.52 78.04L142.64 78.12L145.44 81.32L145.36 81.88C145.76 81.96 146 82.2 146.08 82.68C146.16 83.16 146.4 83.56 146.64 83.8V84.44H146.24L146.16 85.08L144.88 85.16ZM155.52 80.68L154.16 79.64C155.2 79.08 156.08 78.76 157.12 78.52C158.08 78.28 158.88 77.96 159.68 77.48L159.92 77.24L161.44 77.08L163.2 77.64V78.04H163.52L163.84 79.32C162.56 79.72 161.28 79.96 159.84 80.2C158.4 80.44 156.96 80.6 155.52 80.68ZM166 77.96L165.2 75.48C165.68 74.28 166.16 73.16 166.56 71.88C166.96 70.68 167.12 69.32 167.12 67.8L166.8 65.56L165.84 65.48C164.72 65.56 163.52 65.8 162.4 66.28C161.36 66.76 160.24 67.32 159.12 68.04L158.88 68.84C159.28 69.4 159.52 69.96 159.52 70.52C159.44 71 159.44 71.64 159.36 72.28C160.16 72.36 160.96 72.36 161.76 72.44C162.4 72.52 163.04 72.92 163.52 73.48L164.24 75.4L162.88 75.48C162.08 75.4 161.44 75.08 160.8 74.6C160.16 74.12 159.52 73.8 158.88 73.48L157.92 75.48L156.32 76.04V75.48L157.84 68.76L157.6 67.96H157.2L157.28 66.68L157.76 65.48C159.28 65.16 160.88 64.84 162.32 64.52C163.84 64.2 165.36 64.04 167.04 63.96C167.44 64.2 167.92 64.44 168.48 64.52C168.88 64.6 169.2 64.84 169.44 65.24V65.64L170.24 66.28L170.08 68.28C169.68 69.96 169.2 71.56 168.72 73.24C168.32 74.84 167.6 76.44 166.64 77.8L166 77.96ZM154.72 76.36L152.4 75C152 73.96 151.76 73.08 151.52 72.04C151.28 71 150.8 70.12 150.24 69.24H151.04L153.44 71.08C153.84 71.8 154.24 72.6 154.48 73.48C154.72 74.28 154.8 75.32 154.72 76.36ZM142.88 59.24L141.68 58.44C140.32 58.12 138.96 57.88 137.6 57.64C136.16 57.4 134.88 57 133.68 56.28L133.52 55.32L140.64 53.96L140.96 53.4L140.24 51.56L141.6 51.48C142.4 51.4 143.2 51.56 143.92 52.04C144.64 52.6 145.28 52.92 146.08 53C147.6 52.6 149.04 52.28 150.64 52.12C152.08 52.04 153.6 51.8 155.04 51.48L155.44 48.44L156.8 48.28L159.76 49.64L160.16 50.36C161.6 50.44 162.96 50.68 164.32 50.92C165.6 51.24 166.96 51.56 168.4 51.88V52.12L169.44 53.16L169.04 54.28H165.36L161.44 53.96H160L158.64 53.88L156.32 54.76L155.44 56.2L153.2 57.96L153.28 56.52L154.4 53.8L153.04 53.72C151.68 53.8 150.32 54.04 149.04 54.6C147.84 55.16 146.56 55.72 145.36 56.28L144.16 58.68L142.88 59.24ZM242.08 111.56L240.64 110.28C239.44 110.36 238.48 110.12 237.44 109.64C236.4 109.16 235.52 108.6 234.64 107.96V107.64L231.68 105.8L230.16 103.8L229.36 103.24V102.84L228.88 102.68C228.56 102.04 228.32 101.32 228.08 100.68C227.84 99.96 227.68 99.24 227.68 98.52C228.4 97.8 229.2 97.24 230.24 96.84C231.28 96.44 232.24 96.12 233.28 96.04L236.08 96.44V96.76C236.56 96.76 236.96 96.76 237.36 96.84C237.76 96.92 238.08 97.16 238.32 97.48V98.28H237.92L237.76 99L236.08 99.24L232.88 98.6L230.08 99.48L229.84 100.28L230.8 102.2C232.48 103.4 234.32 104.28 236.08 105C237.92 105.72 239.68 106.28 241.6 106.68L242.32 106.04L242.56 101.96L242.48 91.24H240.88C237.12 91.96 233.52 93 230.16 94.36C226.8 95.8 223.36 97.08 219.84 98.2L219.28 95.96L219.44 95.24C221.6 94.36 223.68 93.4 225.68 92.2C227.68 91 229.68 89.88 231.68 88.68V88.36L237.2 83.72H236.88C235.28 84.28 233.68 85.08 232.24 86.12C230.88 87.16 229.36 88.04 227.92 88.76V89.16H227.6C227.36 88.52 227.04 87.88 226.8 87.32C226.48 86.84 226.4 86.2 226.64 85.4L226.72 85L228.24 84.28C228.8 83.56 229.2 82.68 229.76 81.8C230.24 80.92 230.64 80.04 230.88 79.08L228.96 76.92C228.48 76.92 228.08 76.68 227.76 76.2C227.36 75.8 227.04 75.48 226.64 75.4C226.24 74.2 226 73.08 225.92 71.8C225.84 70.6 225.36 69.56 224.32 68.68H224.88L227.76 69.4L228.56 70.2L229.84 70.36L232.8 69C233.04 68.6 233.2 68.04 233.2 67.48C233.12 67 233.12 66.52 233.12 65.96L232.24 65.4L233.28 64.6V60.68L233.12 60.2H232.32C231.76 60.44 231.04 60.6 230.32 60.68C229.6 60.68 228.88 60.76 228.08 60.76C227.36 60.68 226.56 60.6 225.68 60.52C224.88 60.44 224.16 60.12 223.6 59.48C225.44 59.48 227.04 59.24 228.56 58.84C230 58.44 231.6 57.96 233.04 57.32V55.08L232.64 52.12H232.24L231.36 54.12L231.04 51.48L231.52 50.44C231.92 50.2 232.24 50.04 232.72 50.04C233.12 50.04 233.52 50.04 233.92 50.04L234.48 50.28L235.36 50.92L235.68 56.2H236.4L238.72 55.24L239.04 53.8L240.32 53.32C241.36 53.56 242.32 53.88 243.28 54.12C244.24 54.44 245.12 54.84 245.92 55.4L246.16 56.12H245.76V56.52L245.28 57.08H244.72V57.4L243.76 57.64L242.56 57.32L240.72 57.8L240.56 58.2C239.68 58.28 238.88 58.52 238.16 58.76C237.36 59.08 236.64 59.4 235.92 59.8L235.52 63.16H236.08C236.96 62.76 237.92 62.36 238.8 61.96C239.6 61.56 240.56 61.32 241.6 61.16C242.24 61.32 243.04 61.48 243.84 61.64C244.56 61.88 245.28 62.12 245.84 62.52L246 63.08H246.4V63.48C245.92 65.72 245.52 67.88 244.96 70.12C244.4 72.28 243.68 74.44 242.96 76.6H242.72C242.8 77.08 242.72 77.48 242.48 77.88C242.24 78.36 242 78.76 241.76 79.16H242.16L242.64 79V79.4L244.96 79.8V79.96L245.52 80.12V80.68H246V80.52H246.16L247.36 81.72V82.28L246.8 83L245.6 83.4L244.72 83.96L243.36 84.52V84.84L244.4 85.48L244.64 86.44L244.4 87.48L244.64 88.28H245.52L247.6 87.48L248.56 87.32V86.92L249.84 86.68L251.6 87.4V87.8H253.44V87.96L255.52 88.92V89.16C255.68 89.16 255.84 89.24 255.84 89.48C255.84 89.72 255.84 90.04 255.84 90.28C255.52 90.52 255.2 90.68 254.88 90.92C254.56 91.16 254.16 91.24 253.6 91.16C252.96 90.76 252.32 90.6 251.68 90.44C250.96 90.36 250.24 90.28 249.44 90.28C248.8 90.36 248 90.44 247.28 90.44C246.48 90.52 245.76 90.68 245.2 90.84C244.64 92.36 244.4 93.96 244.4 95.56C244.32 97.24 244.24 98.76 244.16 100.44L244.32 101.16L243.84 110.68L243.36 111.16L242.08 111.56ZM208.72 106.76L207.04 106.04C206.8 105.48 206.48 105 206.08 104.44C205.68 103.96 205.52 103.48 205.52 102.84C206.24 100.92 206.64 98.92 206.8 96.84C206.96 94.68 207.04 92.52 207.04 90.28C206.8 89.88 206.48 89.56 206.08 89.16C205.68 88.76 205.6 88.28 205.68 87.64L206.4 84.2C206 83.16 205.6 82.04 205.28 80.84C204.8 79.8 204.56 78.52 204.56 77.16H204V78.04H203.6C203.6 78.6 203.44 79.08 203.12 79.48C202.8 79.96 202.56 80.44 202.48 80.84H202.16L201.2 82.68H200.8L200.24 83.96L199.68 84.12C199.52 84.68 199.28 85.08 198.96 85.48C198.64 85.88 198.4 86.28 198.24 86.84L197.12 87.16C199.68 81.32 202.16 75.56 204.4 69.72C206.64 63.88 208.16 57.88 208.88 51.72H209.12L209.52 52.36L212.56 54.36L213.84 55.8L214.08 57L213.84 57.48L214.08 58.2C213.36 60.44 212.4 62.52 211.28 64.52C210.08 66.68 209.04 68.76 208.24 70.84H207.84C207.44 72.04 206.96 73.16 206.24 74.12C205.52 75.16 205.04 76.36 204.56 77.48L206 79.88L207.36 80.68L209.04 82.04L209.36 83.32C208.96 84.28 208.88 85.48 208.88 86.76C208.88 87.96 208.88 89.24 208.88 90.44L209.28 93.64L208.72 103.56L209.04 105.8L208.72 106.76ZM232.8 90.76L232.56 90.6L231.68 91.48H232.08C233.68 90.84 235.36 90.36 237.12 89.88C238.88 89.48 240.64 89.08 242.48 88.84L242.88 85.48L242.16 85.08L242.24 85.48L239.36 86.76L239.12 87.4L236.32 88.36L236.16 88.68H235.44V89.08L232.8 90.76ZM238 83.32C238.4 82.92 238.8 82.52 239.2 82.12C239.6 81.72 239.84 81.16 239.84 80.52L239.28 79.96L241.52 79.4V78.84L240.4 78.2L239.84 77.16L238.32 76.44L236.24 78.12L235.68 78.28L235.52 79.08L235.68 80.04L234.8 81.16L233.68 81.56L232.72 82.92H232.32V83.72H232.72L238.16 82.12V82.36L237.44 83.48H237.76L238 83.32ZM233.6 75.48L232.64 75.32L232 76.68H232.72L237.52 74.76L237.68 73.88L237.36 71.72H236.8L234.32 73.88L234 75.48H233.6ZM231.2 75.32V74.92L232.16 73.08L231.76 71.56H230.96L230.24 71.8L229.6 71.64V72.04L230.4 75.4L231.2 75.32ZM240.72 73.24V71.48L240.8 65.32L240.64 64.2H239.44L235.76 65.4L235.2 67.8H236.08L236.88 67.4L239.52 68.28L239.76 69.24L238.32 70.28L238.08 70.76L238.88 72.68L239.36 72.84V73.24H240.72ZM278.72 104.36L278.16 104.2L276.48 102.36V102.04H276.08C275.6 100.12 274.88 98.2 274.16 96.44C273.36 94.6 272.48 92.76 271.6 90.92H271.84C272.96 91.56 274.08 92.44 275.12 93.64C276 94.76 276.88 95.96 277.76 97.16L279.12 100.28H279.44L280.88 103.8H280.72L279.28 103.48L279.04 104.2L278.72 104.36ZM319.84 101.56C318.08 101.16 316.32 100.76 314.72 100.44C313.04 100.12 311.52 99.4 310.16 98.2L310 97.64H309.84V97.48H310V96.36C309.68 93.96 309.44 91.56 309.36 89.16C309.2 86.76 309.04 84.36 308.64 82.04H308.8L310.96 82.68C311.52 83.88 311.84 85.16 311.76 86.6C311.68 88.04 311.68 89.48 311.76 90.76L311.6 91.96C311.68 92.84 311.84 93.8 311.92 94.68C312 95.64 312.24 96.52 312.48 97.32C314 97.56 315.44 97.8 316.88 98.04C318.4 98.28 319.76 98.44 321.28 98.52L325.2 97.32C325.6 95 325.84 92.84 326.16 90.6C326.48 88.28 326.64 85.96 326.56 83.48L326.4 82.84V83L328.24 88.28H328.72V89.16L329.6 90.92H330.32L330.64 90.76C330.88 90.84 330.96 91.08 331.04 91.32C331.12 91.64 331.12 91.88 331.12 92.12H331.68V91.8H332L332.32 91.96L332.48 92.68L333.28 93L333.68 94.44L334.56 94.6L335.2 95.24L335.6 96.68H335.84V97L335.6 97.8L330 98.68V99.24C328.48 99.64 326.88 99.88 325.44 100.12C323.92 100.36 322.48 100.68 321.04 101.24V101.4L319.84 101.56ZM297.84 101V100.6C298.88 97.64 299.6 94.52 300.16 91.32C300.72 88.12 301.04 84.84 301.12 81.56L300.96 81.08H301.76V80.68L301.6 80.6H301.76L305.44 82.12L305.6 82.76C305.04 84.84 304.48 87 303.84 89.08C303.2 91.16 302.48 93.24 301.44 95.24H301.12L301.2 95.72H301.04V96.12L300 98.36L299.12 98.68L299.04 99.4L298.48 99.72L298.32 100.36H298V101H297.84ZM282.56 92.04L280.32 90.36C280.08 89.88 279.84 89.4 279.6 88.84C279.36 88.36 279.12 87.96 278.64 87.64L279.12 87.56V87.16H279.6C280.16 87.32 280.8 87.48 281.52 87.64C282.24 87.88 282.72 88.28 283.12 88.84C283.52 89.24 283.76 89.64 284 90.04C284.16 90.44 284.24 90.92 284.24 91.48C283.92 91.4 283.6 91.4 283.36 91.48C283.04 91.56 282.8 91.8 282.56 92.04ZM286.32 86.76C285.68 86.52 285.12 86.12 284.64 85.64C284.08 85.16 283.52 84.6 282.88 84.04H283.36L283.92 83.8L287.92 85L288.24 86.04C287.84 86.04 287.52 86.12 287.28 86.28C287.04 86.52 286.72 86.68 286.32 86.76ZM276.32 80.68V80.52C276.08 79.96 275.84 79.4 275.52 78.92C275.12 78.52 275.04 77.96 275.12 77.32H275.44V77H275.76L278.24 70.92H277.84L273.92 74.12L273.12 73.96C273.04 73.24 272.8 72.6 272.48 71.96C272.16 71.32 271.92 70.68 271.68 70.04C271.92 69.8 272.16 69.64 272.4 69.4C272.56 69.24 272.8 69.24 273.12 69.4V70.2L273.84 70.12C275.36 69.32 276.72 68.28 278.16 67.16C279.44 65.96 280.72 64.6 281.84 63.16C281.68 62.68 281.76 62.28 282.08 61.96C282.32 61.72 282.48 61.48 282.72 61.24L284.48 60.68L286.8 61.32V61.72H287.12V62.2C286.8 62.68 286.4 63 285.92 63.16C285.44 63.32 285.04 63.64 284.72 64.04C284.16 65.72 283.36 67.16 282.48 68.44C281.52 69.8 280.64 71.08 279.84 72.6L279.2 73.24L277.6 77.32H278.16C278.96 76.76 279.68 76.12 280.48 75.56C281.28 75 282 74.44 282.56 73.8L283.04 72.76H283.2V73.64L282 76.92L281.52 77.08L281.36 77.48C280.56 78.2 279.76 78.84 278.96 79.4C278.08 80.04 277.2 80.44 276.32 80.68ZM298.48 76.84C298.16 76.2 297.84 75.64 297.6 75.08C297.28 74.52 297.12 73.96 297.04 73.4H297.2L297.76 72.36L299.2 71.64C299.92 70.68 300.56 69.64 301.28 68.52C301.92 67.4 302.4 66.36 302.72 65.16C302.4 64.84 302.08 64.52 301.76 64.2C301.36 63.96 300.96 63.96 300.56 64.04L297.68 65.08C296.8 65 295.92 64.68 295.2 64.28C294.32 63.96 293.52 63.48 292.72 63L292.64 62.84L294.24 62.28L296.24 62.36L297.28 62.04C297.52 61.56 297.84 61.32 298.4 61.4C298.88 61.48 299.2 61.48 299.6 61.32L302.16 59.96V59.64H302.48L302.8 58.92L303.28 58.76V58.6L304.4 58.44C304.96 58.68 305.52 58.84 305.92 59.08C306.32 59.32 306.88 59.32 307.6 59.24C308.4 58.84 309.12 58.6 309.92 58.36C310.72 58.12 311.44 57.8 312.08 57.32L312.48 56.44L315.12 55.96C315.84 56.28 316.72 56.44 317.6 56.52C318.48 56.6 319.2 56.84 320 57.08L320.4 58.2L317.36 59.08C315.12 59.16 313.04 59.56 311.28 60.44C309.36 61.24 307.44 62.04 305.44 62.68L304.56 62.52L302.72 63.32V63.72C303.6 63.8 304.4 63.96 305.2 63.96C305.92 64.12 306.64 64.52 307.36 65.08L307.52 66.44L306.64 67.56L305.44 68.36V68.68L304.72 69.4L303.52 70.84L302.96 71.08V71.4H303.52L308.64 68.84L308.8 68.28H309.44V68.84L308.32 71.48C307.04 72.36 305.76 73.16 304.32 73.88C302.88 74.52 301.52 75.32 300.16 76.04L300 76.36H299.68L299.12 76.2L298.48 76.84ZM287.04 74.44L286.88 74.12L287.28 72.68L284.8 68.76L285.84 68.6C286.56 69 287.36 69.32 288.08 69.72C288.8 70.12 289.44 70.68 290 71.24L290.48 72.92C289.76 73 289.2 73.24 288.8 73.64C288.32 74.04 287.76 74.36 287.04 74.44ZM310 73.88L309.76 73.72C310.24 73.16 310.72 72.6 311.12 72.04C311.52 71.48 311.76 70.92 311.84 70.28C311.36 69.88 310.96 69.32 310.56 68.68C310.16 68.12 309.92 67.48 309.68 67H310.16V66.44H310.4L315.68 69.56L316.32 70.28L317.2 72.04L316.16 72.12L315.36 71.88L313.68 72.28L312.64 72.12L310 73.88ZM274.96 66.12C275.84 64.04 276.8 61.96 277.76 59.88C278.72 57.72 279.2 55.48 279.28 53.08C279.12 52.52 278.88 51.88 278.56 51.32C278.24 50.76 278.16 50.2 278.24 49.4C279.44 50.52 280.56 51.64 281.44 53C282.32 54.28 282.64 55.88 282.72 57.56L281.76 58.6L281.12 58.92L280.88 59.24H280.56V59.64L279.68 59.96L278.56 61.64L276.56 64.04L274.96 66.12ZM301.2 56.28V56.12C301.44 55.56 301.84 55 302.32 54.44C302.64 53.96 302.8 53.32 302.72 52.52C302.48 52.12 302.08 51.64 301.68 51.24C301.2 50.84 300.72 50.6 300.32 50.28L300.96 50.2V49.88H301.84C302.64 50.12 303.6 50.36 304.56 50.68C305.52 51 306.32 51.48 307.04 52.12L307.84 54.44C306.64 54.52 305.52 54.76 304.4 55C303.28 55.24 302.24 55.72 301.2 56.28ZM415.28 114.76L411.92 112.76V112.36L411.36 112.2L411.28 111.56H410.88L410.16 109.96H409.84L409.6 108.52L411.52 108.12L412 107.24L412.32 97.96L412.24 95.08H411.68L405.76 97.56L405.44 99.4L405.6 101L404.24 104.2L403.12 104.36C402.48 103.96 401.68 103.72 400.88 103.64C400.08 103.56 399.52 103.24 399.04 102.6C398.72 102.12 398.56 101.56 398.48 100.92C398.4 100.44 398.32 99.88 398.08 99.32L396.72 98.52L396.48 97.16H396.32V96.92H396.48V96.6L397.92 96.12L398.4 94.44L398.32 91.96C398.48 90.76 398.72 89.64 398.96 88.52C399.2 87.4 399.44 86.36 399.68 85.24H399.12L396.16 87L396 86.44L394.72 86.04L393.44 84.92L392.88 83.4H393.12L393.52 82.6C395.04 82.6 396.32 82.28 397.68 81.72C398.96 81.16 400.16 80.68 401.36 80.04C401.76 79.32 402.24 78.6 402.8 77.96C403.28 77.32 403.92 76.84 404.64 76.36L407.12 75.88L408.64 76.52L409.28 73.96C409.76 73.8 410.32 73.64 410.96 73.56C411.52 73.48 412.16 73.48 412.72 73.56C413.04 73.56 413.36 73.64 413.68 73.88C414 74.04 414.32 74.28 414.72 74.52V75.08H416.32L418.88 75C419.6 75.16 420.24 75.4 420.8 75.64C421.36 75.88 422 76.2 422.56 76.6L423.04 78.36L421.52 80.84L420.96 81.16L420 81.8L417.28 84.2L417.2 85L418.56 87.4L419.12 87.56L419.44 89.8L418.24 91.48L414.72 93.8L414.24 98.04L414.48 101.72L414.16 107.16C414.24 108.36 414.32 109.72 414.4 111C414.48 112.36 414.88 113.56 415.68 114.6L415.28 114.76ZM386.16 110.68C385.76 110.52 385.36 110.28 384.96 110.04C384.56 109.8 384 109.64 383.36 109.72V109.96L382.32 110.12L382 109.96V109.56L381.44 109.48C381.36 108.92 381.12 108.36 380.72 107.88C380.32 107.4 380.16 106.92 380.08 106.36L380.48 106.12C382 103.88 383.04 101.4 383.52 98.84C384.08 96.28 384.48 93.64 384.72 90.92H384.56L384.64 90.04L385.12 87.64L385.44 78.04L383.92 77.72C383.6 76.92 383.28 76.12 382.96 75.24C382.56 74.36 382.32 73.48 382.4 72.36L383.12 67.96C382.96 65.96 382.4 63.96 381.6 62.12C380.8 60.28 380.24 58.2 379.84 56.12L380.64 57.4H381.04V57.16L380.56 55.88C381.44 57.4 382.64 58.84 383.92 60.12C385.28 61.32 386.4 62.76 387.28 64.2L388.72 67.4L388.4 68.36C388.8 69.08 389.12 69.88 389.52 70.68C389.76 71.48 389.92 72.36 389.84 73.32L390.4 73.48L392.48 71H392.88C393.2 69.88 393.76 68.68 394.4 67.56C395.04 66.6 395.6 65.4 396 64.2H395.6C394.88 64.6 394.16 64.84 393.44 65.08C392.8 65.32 392 65.64 391.2 66.12L389.68 64.44V63.4C391.04 63.08 392.4 62.52 393.6 61.72C394.8 61 396.16 60.68 397.6 60.68L398.88 60.92V59.96C398.64 59.4 398.4 58.92 398.16 58.52C397.92 58.12 397.52 58.04 396.88 58.2V57.8C396.4 57.56 395.92 57.32 395.36 57.32C394.72 57.24 394.08 57.16 393.44 57L392.96 53.72L393.44 52.44C393.92 52.36 394.48 52.28 395.04 52.2C395.6 52.12 396.16 52.04 396.56 51.88V51.48L399.04 49.96L399.28 49.4L401.36 48.6L401.6 49.16L402.32 49.48L402.48 49.88H402.88V49.72H403.04C403.44 50.28 404.08 50.44 404.88 50.36C405.68 50.28 406.32 50.36 406.88 50.68L407.6 51.48L409.44 52.44V53.16L406.4 53.48V53.88L407.52 54.52L407.44 54.84H407.12L406.88 55.64H406.56L404.32 61.88H404.72L406.64 58.52V58.68C405.92 60.28 405.2 61.8 404.64 63.4C404 65 403.36 66.68 402.72 68.28L402.32 68.44V69.4H402.72C402.24 69.88 402 70.44 402 70.92C401.92 71.56 401.92 72.2 401.84 72.84H401.44C401.04 72.44 400.56 72.2 400.08 71.96C399.6 71.72 399.04 71.64 398.48 71.64L397.6 73.96L396 75.72C395.36 76.44 394.64 76.76 393.84 76.84C393.04 76.92 392.32 76.92 391.44 76.84L390.72 75.88C390.24 78.6 389.68 81.32 389.12 83.96C388.48 86.6 387.84 89.24 387.28 91.88H387.04V92.28H387.28L387.2 93.56L386.32 97.08L386.48 98.04L386.16 98.12V98.52L386.48 98.6V98.92L386.16 99.8L386.32 105.24L386.08 105.72C386.32 106.44 386.4 107.16 386.4 107.8C386.4 108.6 386.4 109.4 386.4 110.12L386.32 110.76L386.16 110.68ZM433.44 110.84C432.48 110.44 431.36 109.96 430.24 109.56C429.12 109.16 428.08 108.52 427.04 107.64C426.24 106.12 425.52 104.44 424.96 102.76C424.4 101 423.84 99.32 423.28 97.64V97.8C424 99.16 424.64 100.52 425.2 101.72C425.76 103.08 426.48 104.2 427.52 105.4L428.24 105.56V106.12L430.56 106.2L430.88 102.76L430.72 102.28L430.88 101.32L429.68 63.96H429.36C428.64 64.44 427.84 64.84 427.12 65.08C426.4 65.4 425.68 65.8 424.96 66.36L424.48 66.92L423.04 68.44L423.92 68.52L429.2 67.96V68.28L426.4 69.72L426.24 70.04C425.28 70.52 424.24 70.84 423.12 71.16C422 71.56 420.88 71.72 419.76 71.8L418.64 70.52L417.76 70.28L417.44 71.72L417.68 72.28H417.44C416.96 72.28 416.48 72.12 416.16 71.72C415.76 71.4 415.28 71.16 414.8 71.08L414.08 71.16L412.72 70.68C412.48 70.12 412.16 69.56 411.76 69C411.36 68.44 411.2 67.8 411.36 67.16C412.08 65.8 412.48 64.2 412.56 62.44C412.64 60.68 412.64 59 412.72 57.32L411.76 55.24L410.08 54.84L412 54.28L412.88 54.6L413.76 54.36C414.56 54.76 415.28 55.32 416 56.04C416.64 56.76 417.12 57.48 417.44 58.36L417.84 61H418.24C419.36 60.28 420.48 59.72 421.84 59.4C423.04 59.08 424.4 58.92 425.92 58.84L429.44 60.2L429.52 59.48L428.96 54.36H428.4C427.12 54.92 425.92 55.64 424.72 56.36C423.44 57.08 422.16 57.4 420.64 57.32L420 56.44L417.68 56.2L416.8 53.16L418.16 52.04C419.28 51.96 420.24 51.64 421.12 50.92C422 50.36 423.04 49.96 424 49.8C424.72 49.24 425.6 48.84 426.4 48.44C427.28 48.12 428.24 47.96 429.2 47.88L430.88 49.64C432.4 49.8 433.68 50.2 434.88 50.84C436.08 51.56 437.28 52.2 438.64 52.6L438.72 53.08L437.04 53.4L436.32 53.24C435.28 56.68 434.56 60.28 434.16 63.96C433.76 67.64 433.28 71.32 432.8 74.92L433.04 78.92L432.72 80.44C432.96 82.12 433.04 83.88 433.04 85.48C433.04 87.24 433.04 88.92 433.04 90.6L432.96 91.08L433.12 94.36L432.8 94.52V95.8H433.12L433.04 96.2L432.72 97.16H433.04C433.12 99.56 433.2 101.88 433.44 104.12C433.68 106.44 434 108.68 434.4 110.92L433.44 110.84ZM401.92 96.2L403.76 95.56C404.56 93.32 405.28 90.92 406 88.52C406.64 86.12 407.2 83.8 407.68 81.4L407.12 81.32L401.84 83.96L401.52 87.64L401.6 89.32L401.36 92.36L401.52 92.92H402.32L403.12 91.88H403.68L403.84 92.12L403.68 92.44L403.12 93.24L401.44 94.52L401.36 95.64H401.04V96.04L401.36 96.36H401.76L401.92 96.2ZM408.8 93.56L412.08 92.04L412.24 88.04L412.08 87.32H411.68L411.12 87.4V87.96L407.6 89.96L407.2 90.68L406.24 91.4L406.08 92.92L406.48 94.12L407.04 94.2L408.8 93.56ZM407.36 90.28L408 88.6L408.64 88.44L408.8 87.88L409.2 87.72V87.32H408.64L407.44 88.28V88.04L407.68 87.56H407.12L406.64 89.32L406.8 89.88L406.64 90.44L407.2 90.52L407.36 90.28ZM407.44 87.32V87.08L409.12 85H409.44L410.4 83.72C410.8 83.48 411.12 83.16 411.52 82.76C411.92 82.44 412.08 82.04 412.16 81.56L410.88 80.52L410.64 79.96H410.08L409.28 80.76L407.12 87.32L407.28 87.56L407.44 87.32ZM431.44 86.76L431.52 84.68L431.44 81.8H431.04L430.88 84.92L431.28 86.92L431.44 86.76ZM431.28 81.48L431.36 79.24L431.2 77.08H430.88L430.8 79.24L431.04 81.64L431.28 81.48ZM406.16 78.2L405.28 77.96L404.16 78.84H404.72L406.16 78.2ZM394.64 72.6L397.76 69.8L397.6 69H396.48C396 69.48 395.44 70.04 395.04 70.68C394.56 71.32 394.24 72.04 394 72.76H394.4L394.64 72.6ZM418.4 66.28L419.68 65.08H419.2L418.08 65.56L418 66.52H418.16L418.4 66.28ZM464.4 111.16L463.76 110.28H463.44C462.88 109.64 462.16 109.08 461.44 108.44C460.64 107.88 459.92 107.4 459.44 106.92L457.68 106.2L457.52 105.64H457.12C456.64 104.76 456.16 103.96 455.44 103.32C454.72 102.6 453.92 102.04 453.12 101.56L451.2 100.92L450.48 100.12L449.2 99.56V98.76C449.92 97.32 450.88 95.88 452.08 94.44C453.28 93.16 454.32 91.72 455.52 90.44H455.92L457.52 88.2L460.64 84.84H461.04V80.44H461.44V80.12L461.2 76.2L461.6 72.68H461.2L459.04 73.24V73.64H458.24C457.36 72.84 456.64 72.04 455.84 71.24C454.96 70.52 454.08 69.8 453.12 69.16L452 68.6V68.2C453.92 67.96 455.84 67.4 457.44 66.6C459.12 65.8 460.8 65 462.56 64.12C462.8 61.88 463.12 59.72 463.28 57.4C463.52 55.24 463.6 53 463.6 50.68L463.28 48.76H463.44L464.4 49.56C464.64 50.12 464.96 50.68 465.52 51C466 51.48 466.56 51.88 467.12 52.28V52.68L468.24 53.24C468.48 53.96 468.72 54.68 468.88 55.48C468.96 56.36 469.04 57.24 469.04 58.04L468.8 62.12C469.2 62.36 469.76 62.44 470.24 62.44C470.8 62.44 471.2 62.6 471.6 62.84V63.08H471.44V63.8L472.32 63.96V64.68H472.96L473.12 66.2L472.32 66.6L472.16 67.32L468.64 69.16C467.92 70.76 467.28 72.44 466.72 74.04C466.24 75.72 465.84 77.48 465.68 79.32H466.08L467.68 77.64V78.76L465.12 83.4V93.96L464.96 100.44C465.04 102.04 465.28 103.64 465.52 105.24C465.76 106.92 466 108.52 466.08 110.28L464.96 110.68L464.72 110.92L464.4 111.16ZM461.04 105.08L461.44 104.12L461.2 101.32L461.44 101.16L461.04 96.92L461.2 95.64L460.88 89.32H460.48L459.2 91.16L458.48 92.12L457.68 92.84H457.28V93.4H456.96L456.64 94.28L456.08 94.52L454.56 96.76L454 96.92L453.28 98.92H452.96V99.56C453.92 100.68 455.04 101.56 456.4 102.44C457.6 103.32 458.8 104.2 459.92 105.24H460.88L461.04 105.08ZM491.04 103.64V103.24L488.8 102.28L486.72 100.44C486.08 98.28 485.52 96.12 485.12 93.88C484.72 91.56 484.32 89.32 483.76 87.16L484.16 86.36C485.04 87.32 485.84 88.36 486.48 89.56C486.96 90.68 487.6 91.88 488.24 93.08H488.64V92.84H488.8C489.2 94.12 489.76 95.48 490.32 96.84C490.88 98.12 491.44 99.48 492 100.76L491.6 101.56L492 102.68L491.2 103.24V103.64H491.04ZM471.6 100.68L471.44 100.44C473.2 97.64 474.8 94.84 476.32 91.96C477.76 89.08 478.96 86.12 479.92 83.08H480.24C480.88 80.76 481.52 78.6 482.08 76.36C482.64 74.12 483.12 71.96 483.44 69.72L482.96 69.16H483.12C483.92 69.16 484.8 69.24 485.6 69.48C486.4 69.72 487.12 70.04 487.92 70.44V70.76H488.24L488.48 72.84C488.08 74.52 487.6 76.2 486.96 77.8C486.4 79.48 485.6 80.92 484.72 82.44H484.4C484 83.48 483.52 84.28 483.04 85.08C482.48 85.96 482 86.84 481.76 87.8L480.88 88.36L478.64 92.28H478.24L477.68 93.64H477.28L474.56 97.8L473.44 98.92L471.76 100.68H471.6ZM494.72 99.88C494.08 99.16 493.36 98.36 492.72 97.64C492 97 491.68 96.12 491.76 95.08L494 93.64L496.08 91.56C496.88 90.76 497.76 89.96 498.64 89.08C499.52 88.2 500.24 87.32 500.88 86.36C501.12 85.64 501.52 84.92 502.08 84.36C502.64 83.88 503.04 83.24 503.12 82.44L498.8 82.28L492.56 83.4H492.96V82.68C494.48 81.48 496.24 80.68 498.08 79.96C499.92 79.24 502 79.08 504.16 79.32C504.88 79.56 505.68 79.8 506.56 80.04C507.28 80.28 508 80.68 508.64 81.32C509.04 81.72 509.28 82.12 509.52 82.52C509.68 83 509.68 83.48 509.6 83.96L506.72 87.8H506.48V88.2L505.92 88.36L505.68 88.76H505.28L504.72 89.88L504.16 90.12V90.44H503.6L502.56 92.12L499.44 95.24C499.92 95.24 500.4 95.24 500.96 95.24C501.52 95.24 501.92 95.4 502.32 95.8V96.76L501.76 96.92L501.44 98.36C500.4 99 499.44 99.48 498.32 99.72C497.12 99.96 496 100.04 494.72 99.88ZM488.24 64.84L487.28 64.52L482.96 60.12H483.6L484.4 60.28C486 60.2 487.44 59.88 488.88 59.48C490.16 59.08 491.6 58.76 493.12 58.36L493.6 56.92H497.12L500.48 58.04H501.2V58.92H500.88V59.32L501.2 60.12L500.48 61.72C498.64 62.6 496.64 63.32 494.72 63.8C492.8 64.28 490.72 64.6 488.64 64.84L488.48 64.68L488.24 64.84ZM574.32 114.92V112.52C573.36 107.16 572.64 101.56 572.24 95.88C571.76 90.2 571.2 84.52 570.48 79L569.36 78.28L568.96 77.24C568.72 77 568.48 76.84 568.16 76.76C567.84 76.68 567.52 76.68 567.12 76.6L563.2 78.6C562.88 81.72 562.4 84.84 561.84 88.04C561.28 91.24 560.64 94.28 560.08 97.32L560.24 97.88L560 98.28H559.28C558.56 97.56 558 96.76 557.52 95.88C556.96 95 556.72 94.04 556.64 93.16C557.36 91.88 557.92 90.6 558.32 89.24C558.64 87.88 558.8 86.44 558.8 84.76L558.56 84.2L558.88 82.2C558.72 80.6 558.64 78.92 558.72 77.32C558.72 75.64 558.32 74.2 557.52 72.92L555.68 72.04L555.44 71.48C556 70.92 556.72 70.76 557.36 70.84C558.08 70.92 558.8 71 559.36 71C560.08 71.24 560.8 71.48 561.6 71.88C562.32 72.28 563.12 72.44 563.92 72.52C566.64 71 569.36 69.64 572.24 68.36C575.04 67.16 577.92 66.2 580.96 65.48L581.36 64.76L581.92 64.84C582.64 65.32 583.44 65.64 584.16 65.8C584.96 66.04 585.76 66.28 586.48 66.68C586.72 67.08 586.88 67.4 587.04 67.8C587.12 68.2 587.12 68.6 586.96 69.08H587.36V69.48C587.2 69.96 587.04 70.36 586.96 70.68C586.88 71.08 586.56 71.32 586.08 71.4C584.8 71.64 583.52 71.8 582.4 72.04C581.2 72.28 580.08 72.6 578.96 73L578.72 73.56L578.88 74.44L577.92 74.76C577.52 75.88 577.36 77.08 577.28 78.28C577.2 79.64 576.96 80.84 576.8 82.12L576.88 82.68C576.72 83.8 576.56 84.92 576.48 86.12C576.4 87.32 576.32 88.6 576.24 89.8H575.92V90.2L576.16 97.56L575.92 98.52L576.08 99.24L575.92 100.2L576.08 100.36L575.92 110.68C575.68 111.4 575.52 112.2 575.52 113C575.52 113.8 575.12 114.36 574.32 114.92ZM544 109.16L540.64 104.76H540.24C540.08 104.36 539.92 103.96 539.84 103.48C539.68 103 539.68 102.52 539.84 102.04H540.08L541.76 104.36H542.72C542.96 102.44 543.2 100.44 543.36 98.28C543.52 96.2 543.52 94.04 543.6 91.96L543.36 86.52H542.64V86.92L541.36 87.08V87.4L533.04 89.8L531.44 85.96L532.24 85.24C532.8 85.24 533.36 85 533.84 84.6C534.32 84.2 534.8 83.96 535.36 83.72L535.76 82.92L540.4 78.36V77.4H540.08L530.4 82.12L530.24 82.68L529.2 82.76L524.4 78.6H524.8L525.52 78.84C528.4 77.88 531.12 76.84 533.76 75.48C536.48 74.12 538.96 72.92 541.36 71.56H540.48L540.16 71.8V71.4C540.96 70.76 541.68 70.12 542.4 69.24C543.04 68.36 543.52 67.48 544 66.52H543.52L541.44 67.56V67.96L540.56 68.84H540.24L537.76 72.28H537.2C536.56 71.72 535.84 71.08 535.28 70.36C534.72 69.64 534.24 68.84 533.92 68.12V67.56C534.8 66.76 535.6 65.72 536.24 64.68C536.88 63.72 537.36 62.6 537.92 61.48C536.88 61.4 536 61.24 534.96 61C533.92 60.76 533.12 60.6 532.24 60.2V59.96L543.68 54.76L544.24 53.64L543.84 53.56C543.84 53.08 543.68 52.6 543.52 52.12C543.2 51.72 542.88 51.32 542.48 50.92L538.48 47.56V47.4H539.04L539.6 46.92C540.8 47.4 542 47.88 543.2 48.44C544.32 49 545.44 49.64 546.56 50.36L547.36 51.24V53.08L546.32 53.48V53.8C546.96 53.96 547.84 54.2 548.72 54.36C549.6 54.52 550.24 54.92 550.72 55.48L551.12 57C550.4 57.32 549.76 57.64 549.04 58.04C548.32 58.44 547.68 58.84 547.04 59.24L546.88 59.8L546.32 60.04V60.44L543.2 63.96H543.68L545.6 62.6H546.48C547.28 63 548.24 63.24 549.12 63.48C550 63.72 550.64 64.04 551.36 64.6L552.24 65.56V66.52L551.36 66.68V67.08C550.64 67.16 550 67.4 549.28 67.96C548.56 68.52 547.84 68.84 547.12 68.92L547.04 69.72C547.76 69.96 548.64 70.12 549.6 70.2C550.4 70.28 551.2 70.68 551.84 71.16L552.72 72.68C552.64 73.08 552.4 73.32 552 73.4C551.6 73.56 551.28 73.72 550.88 73.8L547.52 76.28L545.68 77.32L545.52 78.04L546.48 78.44L547.6 80.76L550.24 81.72V82.04H550.32V82.6C549.76 83.16 549.04 83.56 548.32 83.96C547.52 84.28 546.88 84.84 546.48 85.48C546.08 89.4 545.68 93.32 545.28 97.32C544.88 101.24 544.48 105.16 544.24 109.16H544ZM533.52 104.76L532.48 104.2V103.88L531.36 103.16L531.12 102.6H530.8L530 100.92L529.6 100.84V100.36L530 99.64H530.48L533.28 92.2H533.52L537.36 93.16L538.08 92.84L538.32 92.28L538.88 92.04L542.08 87.56H542.24L542.4 90.68C541.2 92.76 540.24 94.84 539.6 97.08C538.8 99.24 537.52 101.24 535.92 103.08H535.6L534.64 104.44L533.52 104.76ZM542.64 83.4L542.72 82.68L541.6 80.2H541.2C540.08 81.08 538.88 82.04 537.68 83C536.56 83.96 535.52 85 534.72 86.2L535.52 86.44L542.64 83.4ZM557.36 69.64C558.56 67.48 559.52 65.16 560.32 62.76C561.2 60.36 562.08 57.96 562.96 55.64L562.64 54.76H562.24V53.96H562.64V53.72H562.8L563.52 54.04C564 53.72 564.32 53.24 564.48 52.68C564.56 52.12 564.72 51.64 564.96 51.16L566.48 50.68C567.44 51 568.48 51.32 569.52 51.4C570.48 51.56 571.44 51.88 572.32 52.36L572.48 52.92L573.04 53.16L573.44 54.04H573.68V55L573.52 55.72L573.6 56.28L573.52 56.68L571.44 56.6L571.28 57.16L570.56 57.8L568.48 60.04L567.2 61.24H566.88L566.48 61.8L565.36 63.24H565.04C565.04 63.8 564.88 64.12 564.56 64.36C564.16 64.68 563.84 65 563.6 65.4H563.36L562.8 66.44L561.84 67.32L559.6 69.72L557.36 69.64ZM620 112.2C621.12 109.96 622.48 107.56 623.84 105.32C625.12 103.08 626.4 100.76 627.68 98.52H628.08C628.48 97.48 628.96 96.52 629.68 95.64C630.32 94.76 630.72 93.8 631.12 92.76L630.96 92.2L627.84 90.12C627.2 89.24 626.8 88.28 626.4 87.32C626 86.52 625.6 85.48 625.36 84.44L626.8 84.28L629.44 85.48C631.04 84.68 632.88 84.04 634.64 83.56C636.48 83 638.16 82.6 640 82.2L640.56 82.36V82.2H641.52L641.76 80.12L640.72 79.88L634.24 80.52V80.28C635.92 79.4 637.6 78.6 639.44 78.04C641.2 77.48 643.12 77.24 645.2 77.24L649.28 78.52L650.24 79.72V80.52L649.28 81.96L648.64 82.2C647.84 83.64 647.2 85.08 646.88 86.76C646.4 88.36 646 90.04 645.76 91.64H645.36V92.2H644.96V92.6L643.52 92.76C642.8 92.76 642.24 92.6 641.84 92.28C641.36 91.96 640.8 91.8 640.24 91.8L640 92.36C639.28 92.6 638.56 93 637.84 93.48C637.12 93.96 636.48 94.44 635.76 95.08L635.36 95.88L634.8 96.04L633.68 97.56V97.32H633.28L629.04 101.8H628.64L627.84 102.6L627.28 103.4H626.96L626.56 103.96L625.76 105.08H625.36V105.48L624.4 106.68C623.68 107.48 622.96 108.44 622.4 109.56C621.84 110.6 620.96 111.4 620 112.2ZM645.36 108.36C643.92 107.96 642.56 107.56 641.12 107.32C639.76 107 638.48 106.28 637.44 105.08L636.96 103.4C637.12 102.44 637.36 101.4 637.6 100.44C637.76 99.4 637.92 98.36 638.08 97.32H638.24L640.56 98.36C640.8 99.4 641.04 100.44 641.2 101.4C641.28 102.44 641.44 103.48 641.52 104.44C642.4 104.68 643.44 104.84 644.48 104.92C645.6 105 646.72 105.08 647.68 105.08L653.68 103.4C654.16 101.72 654.64 100.04 655.12 98.2C655.52 96.52 655.92 94.76 656.16 93L656.96 92.76C657.28 93.72 657.6 94.52 657.84 95.4C658.08 96.28 658.32 97.16 658.48 98.12H659.28V98.52L659.84 98.76L660.4 100.28L661.52 100.52L661.76 101.4H662.08V101H663.28L664 102.2H664.4V103H664.96V103.4L664.8 104.28L666.16 104.44V104.68H664.96V105.08L662.48 105.88L661.12 105.64L655.36 106.84V107L648.64 108.12L646.4 107.96L645.36 108.36ZM600 93.8L599.04 92.2L597.84 91.4V90.28L598.24 89.48C599.44 89.4 600.4 88.84 601.2 87.96C602.08 87.16 602.96 86.2 603.84 85.24C604.88 83.64 605.6 81.72 606 79.8C606.4 77.8 606.56 75.8 606.56 73.8H605.76C605.2 74.12 604.64 74.28 603.92 74.28C603.28 74.28 602.56 74.28 601.92 74.28C600.56 73.96 599.28 73.72 597.84 73.56C596.48 73.48 595.28 72.84 594.24 71.8V71.64C594.88 71.72 595.52 71.72 596.16 71.48C596.8 71.32 597.28 71.16 597.84 71V70.84C599.44 70.2 600.88 69.48 602.24 68.6C603.6 67.72 604.96 66.92 606.4 66.04L606.56 64.84L604.4 63.16L604.24 60.84L604.56 56.68C604.16 56.12 604.08 55.56 604.24 54.84C604.32 54.2 604.24 53.72 604 53.16H604.24C604.96 53.4 605.6 53.88 606.16 54.44C606.72 55.16 607.12 55.8 607.68 56.44V56.84L609.28 57.96C609.52 58.52 609.84 59 610.24 59.4C610.56 59.88 610.64 60.44 610.56 61L610.4 64.68L613.68 65.24L614 65.88L614.8 66.44V66.84H615.76V67.24H616.16V67.96L615.2 68.12L614.96 69.16L614 69.32V69.72L610.24 71.24V71.64H609.84C609.6 73.48 609.12 75.16 608.48 76.92C607.76 78.6 607.28 80.44 606.96 82.2H607.28L610.96 78.76V79.16C609.84 81 608.72 83 607.68 85C606.72 87.16 605.44 89.08 604 90.84L601.36 92.76V93.16L600 93.8ZM640 89.72V89.16L640.72 88.36L641.12 85.64H640.72L640.4 86.28L638.88 87.32L637.28 87.96V88.36C637.68 88.76 638.08 89 638.56 89.16C639.04 89.4 639.52 89.56 640 89.72ZM632.72 88.92L633.28 88.76V88.36L635.2 86.28H634.24C633.84 86.52 633.44 86.68 632.88 86.68C632.32 86.68 631.84 86.68 631.36 86.68L630.72 86.44V86.84L632.08 89.16H632.48L632.72 88.92ZM614 86.28L613.52 85.64H613.68V84.84L613.52 84.28L612.48 83.56H612.72C612.56 83.16 612.56 82.84 612.8 82.6C613.04 82.36 613.28 82.12 613.68 81.96C615.04 81.96 616.32 81.56 617.36 80.84C618.48 80.2 619.68 79.72 620.96 79.32L621.12 78.76C623.76 77.32 626.16 75.8 628.56 73.96C630.88 72.28 633.36 70.6 635.76 68.76L636 68.36L636.96 67.96L637.28 67L639.6 64.68V64.12H638.64L636.56 64.44V64.28C637.36 63.96 638.4 63.56 639.44 63.08C640.48 62.6 641.44 62.28 642.48 62.2L645.36 63.56V64.44L644 65.24L642.32 67H641.92L641.52 67.56C640.08 69 638.48 70.28 636.88 71.4C635.2 72.6 633.6 73.56 631.92 74.28V74.68L631.36 75.24H631.76C635.28 73.88 638.88 72.6 642.48 71.4C646.08 70.28 649.92 69.8 654 69.88L655.2 70.52V70.84H655.76V71H656.16V71.4H656.56V72.6L653.68 73.8V74.12L651.92 74.84L651.36 75.64L650.24 76.28L650 76.68L648.64 77.56V77.24C649.2 76.6 649.68 75.88 650.16 75.08C650.48 74.28 650.8 73.56 650.96 72.76H649.84L645.76 73.56L645.2 73.4V73.8L636.8 76.28V76.44C632.8 77.56 628.96 79.08 625.28 81C621.6 83 617.84 84.68 614 86.28ZM626.96 72.6L626.8 71.96H626.4C626.16 71.56 625.92 71.16 625.68 70.68C625.44 70.36 625.44 69.88 625.6 69.32L626.16 69.16L626.8 68.12L627.12 67.56L627.68 67H628.08L628.24 66.28H628.64V65.88H629.04L629.6 64.68L630.24 64.44L630.72 63.56L632.08 61.4H631.36L628.88 61.8L628.08 61.4L627.68 60.28L627.12 59.32L627.44 57.96L629.6 56.84L629.84 56.28H630.24L631.76 54.12L632.32 53.96L632.88 52.6H633.28L634.24 50.12L629.6 47.72V47.32L632.72 47C633.6 47.16 634.48 47.32 635.44 47.72C636.32 48.12 637.12 48.52 637.84 48.92L638.08 49.48L639.28 49.88V51L638.48 51.4L638.24 51.96L634.24 54.84L634 55.24C633.52 55.8 632.96 56.2 632.4 56.44C631.84 56.68 631.2 57 630.56 57.32V57.72H630.24V58.52H630.72C632.08 57.88 633.44 57.32 634.72 56.6C636.08 55.96 637.44 55.48 638.88 55.08L639.44 55.24L639.84 54.84L641.52 55.64L641.92 57.24L639.44 60.12L638.08 61.24H637.68V61.64L636.16 63H635.76L635.36 63.56L634.8 64.28L634.24 64.68L633.84 65.24L633.52 65.88H633.12L632.88 66.44L632.32 66.68L632.08 67.24H631.76L628.88 71.24H628.48L628.24 71.8L627.44 71.96C627.44 72.2 627.44 72.36 627.36 72.44C627.28 72.52 627.12 72.6 626.96 72.6Z" fill="white"/>
</g>
<defs>
<filter id="filter0_dd_3925_6" x="0.559998" y="0.679993" width="715.6" height="168.24" filterUnits="userSpaceOnUse" color-interpolation-filters="sRGB">
<feFlood flood-opacity="0" result="BackgroundImageFix"/>
<feColorMatrix in="SourceAlpha" type="matrix" values="0 0 0 0 0 0 0 0 0 0 0 0 0 0 0 0 0 0 127 0" result="hardAlpha"/>
<feOffset dy="4"/>
<feGaussianBlur stdDeviation="25"/>
<feComposite in2="hardAlpha" operator="out"/>
<feColorMatrix type="matrix" values="0 0 0 0 0 0 0 0 0 0 0 0 0 0 0 0 0 0 0.5 0"/>
<feBlend mode="normal" in2="BackgroundImageFix" result="effect1_dropShadow_3925_6"/>
<feColorMatrix in="SourceAlpha" type="matrix" values="0 0 0 0 0 0 0 0 0 0 0 0 0 0 0 0 0 0 127 0" result="hardAlpha"/>
<feOffset dy="4"/>
<feGaussianBlur stdDeviation="2"/>
<feComposite in2="hardAlpha" operator="out"/>
<feColorMatrix type="matrix" values="0 0 0 0 0 0 0 0 0 0 0 0 0 0 0 0 0 0 0.25 0"/>
<feBlend mode="normal" in2="effect1_dropShadow_3925_6" result="effect2_dropShadow_3925_6"/>
<feBlend mode="normal" in="SourceGraphic" in2="effect2_dropShadow_3925_6" result="shape"/>
</filter>
</defs>
</svg>
